<svg version="1.1" id="Ebene_1" xmlns="http://www.w3.org/2000/svg" xmlns:xlink="http://www.w3.org/1999/xlink" x="0px" y="0px"
	 viewBox="450 200 500 560" style="enable-background:new 0 0 3686 2940;" xml:space="preserve">
     <style type="text/css">
	.st0{fill:#FFFFFF;}
	.st1{fill:#646CFF;}
	.st2{fill:#0617B7;}
</style>
<g>
	<g>
		<path class="st0" d="M612.26,513.53l-0.15,19.75l-21.37,3.77l-0.38,59.67l-25.23,4.45l0.38-59.67l-21.14,3.73l0.15-19.75
			L612.26,513.53z"/>
		<path class="st0" d="M647,527.13l-0.02,9.86l25-4.41l-0.21,18.75l-25.01,4.41l-0.02,11.21l28.42-5.01l-0.13,19.85l-53.65,9.46
			l0.53-79.42l53.65-9.46l-0.15,19.74L647,527.13z"/>
		<path class="st0" d="M739.14,558.49l-26.82,4.73l-4.09,12.71l-26.48,4.67l29.97-84.6l29.1-5.13l28.79,74.24l-26.6,4.69
			L739.14,558.49z M733.1,540.85l-7.07-20.82l-7.48,23.39L733.1,540.85z"/>
		<path class="st0" d="M875.39,467.14l-0.53,79.41l-25.12,4.43l0.26-39.71l-12.65,41.89l-21.6,3.81l-12.1-37.41l-0.29,39.6
			l-25.23,4.45l0.53-79.41l30.92-5.45l17.44,44.43l17.56-50.6L875.39,467.14z"/>
		<path class="st0" d="M628.76,647.07c-3.21,4.67-7.44,8.13-12.69,10.41c5.3,0.32,9.62,1.97,12.97,4.94
			c3.35,2.98,5.43,6.76,6.24,11.34c0.26,1.5,0.39,3.06,0.38,4.71c-0.13,8.99-3.2,16.45-9.22,22.38
			c-6.01,5.93-14.65,9.89-25.89,11.87l-54.43,9.6l0.68-102.5l52.96-9.34c9.49-1.67,17.15-1.24,22.99,1.29
			c5.84,2.54,9.36,7.17,10.54,13.9c0.2,1.12,0.31,2.93,0.35,5.43C633.6,637.09,631.97,642.41,628.76,647.07z M602.24,677.71
			c-0.63-3.55-3.43-4.89-8.42-4.01L579,676.31l-0.17,14.49l14.82-2.61c3.03-0.53,5.26-1.48,6.68-2.84s2.12-3.29,2.08-5.79
			C602.43,679.07,602.37,678.45,602.24,677.71z M600.34,641.17c-0.61-3.46-3.46-4.74-8.54-3.84l-12.62,2.22l-0.02,14.46l12.62-2.22
			c2.93-0.52,5.11-1.48,6.53-2.89c1.42-1.41,2.11-3.31,2.09-5.72C600.42,642.21,600.4,641.54,600.34,641.17z"/>
		<path class="st0" d="M682.8,673.91l31.4-5.54l-0.1,24.31l-63.96,11.28l0.68-102.5l32.57-5.74L682.8,673.91z"/>
		<path class="st0" d="M760.7,582.09l-0.4,57.77c-0.03,1.55,0.1,3.12,0.38,4.71c0.56,3.18,1.88,5.52,3.96,7.04
			c2.08,1.51,5.03,1.93,8.84,1.26c4.7-0.83,8.18-2.82,10.45-5.96c2.27-3.15,3.44-7.09,3.51-11.83l0.4-57.77l32.42-5.72l-0.4,57.77
			c-0.09,9.75-2.24,18.45-6.44,26.08s-9.87,13.82-17,18.54c-7.13,4.73-15.1,7.87-23.9,9.42c-11.64,2.05-21.37,0.78-29.19-3.82
			s-12.69-12.32-14.6-23.17c-0.63-3.55-0.91-7.17-0.85-10.84l0.4-57.77L760.7,582.09z"/>
		<path class="st0" d="M870.24,588.22l-0.02,12.73l32.28-5.69l-0.27,24.2l-32.28,5.69l-0.02,14.46l36.68-6.47l-0.17,25.63
			l-69.25,12.21l0.68-102.5l69.25-12.21l-0.2,25.49L870.24,588.22z"/>
	</g>
	<g>
		<path class="st1" d="M894.44,402.66c0,0,2.25-107.78-81.99-149.1c-1.04-10.95-12.52-23.12-12.52-23.12s-122.1-28.65-193.08,63.26
			c-31.17,40.36-50.95,122.35-50.95,122.35s-51.6,26.45-43.2,50.61c8.95,25.75,96.03,38.54,120.94,44.11
			c62.06,13.89,147.04-53.16,223.16-62.23C910.9,442.1,912.91,418.58,894.44,402.66z"/>
		<g>
			<path class="st2" d="M662.5,519.91c-10.53,1-20.74,0.64-30.56-1.56c-3.58-0.8-8.62-1.78-14.46-2.92
				c-52.13-10.15-103.72-22.08-112.11-46.22c-9.25-26.62,31.17-51.38,43.84-58.38c4.17-16.25,22.97-84.93,51.5-121.87
				c30.34-39.29,74.76-63.17,128.45-69.07c40.27-4.42,71.24,2.69,72.54,2.99l2.27,0.53l1.6,1.7c1.21,1.28,10.77,11.69,13.79,23.26
				c34.61,18.21,59.83,50.26,73.08,92.94c8.21,26.46,9.54,49.36,9.73,57.95c8.98,8.92,12.45,19.27,9.53,28.83
				c-3.14,10.29-15.06,23.53-53.99,28.16c-31.81,3.79-65.97,18.38-99.01,32.49C724.84,503.19,692.36,517.06,662.5,519.91z
				 M733.94,235c-1.19,0.11-2.38,0.24-3.59,0.37c-49.88,5.6-89.36,26.82-117.36,63.07c-29.78,38.56-49.35,118.63-49.55,119.43
				l-0.84,3.46l-3.17,1.62c-0.12,0.06-12.48,6.45-23.56,15.5c-7.21,5.88-18.85,17.04-15.85,25.66c1.11,3.19,7.04,11.67,38.14,21.45
				c20.91,6.58,44.82,11.23,62.28,14.63c5.95,1.16,11.09,2.16,14.88,3.01c32.79,7.34,73.83-10.19,117.28-28.74
				c34.05-14.54,69.25-29.57,103.27-33.62c34.37-4.1,40.06-14.27,40.98-17.29c1.3-4.24-1.5-9.85-7.49-15.01l-2.77-2.38l0.08-3.65
				c0.02-1.42,0.89-103.44-77.65-141.98l-3.89-1.91l-0.41-4.32c-0.5-5.22-5.22-12.38-8.89-16.78
				C788.4,236.09,763.98,232.14,733.94,235z"/>
			<path class="st2" d="M650.28,343.13l-16.88-7.55l2.71-6.89c0.39-1,9.94-24.82,34.9-49.82c22.92-22.97,63.84-51.36,128.34-56.16
				l1.15,15.47c-46.02,3.44-84.63,19.57-114.75,48c28.74-20.71,71.18-40.99,126.78-40.37l-0.17,15.52
				c-101.87-1.13-157.85,75.86-158.4,76.63L650.28,343.13z"/>
			<path class="st2" d="M723.21,457.69c-28.92,2.76-61.37,2.97-93.84-1.66c-60.22-8.58-79.04-34.42-79.81-35.51l12.69-8.94
				l-6.34,4.47l6.29-4.54c0.16,0.22,16.56,21.64,69.36,29.16c71.49,10.19,142.51-3.92,172.81-15.9l5.7,14.43
				C792.11,446.3,760.62,454.12,723.21,457.69z"/>
			<path class="st2" d="M867.98,420.8l-5.21-14.62c19.33-6.88,23.53-18.69,23.7-19.19l14.82,4.6
				C901.05,392.39,895.12,411.13,867.98,420.8z"/>
		</g>
	</g>
</g>
</svg>