<svg version="1.1" id="Ebene_1" xmlns="http://www.w3.org/2000/svg" xmlns:xlink="http://www.w3.org/1999/xlink" x="0px" y="0px"
	 viewBox="2700 200 500 560" style="enable-background:new 0 0 3686 2940;" xml:space="preserve">
     <style type="text/css">
	.st0{fill:#FFFFFF;}
	.st7{fill:#00DB90;}
	.st8{fill:#006B3F;}
</style>
<g>
	<g>
		<path class="st0" d="M2874.17,509.14l-0.15,19.75l-21.37,3.77l-0.38,59.67l-25.23,4.45l0.38-59.67l-21.14,3.73l0.15-19.75
			L2874.17,509.14z"/>
		<path class="st0" d="M2908.91,522.73l-0.02,9.86l25-4.41l-0.21,18.75l-25.01,4.41l-0.02,11.21l28.42-5.01l-0.13,19.85l-53.65,9.46
			l0.53-79.41l53.65-9.46l-0.15,19.74L2908.91,522.73z"/>
		<path class="st0" d="M3001.05,554.1l-26.83,4.73l-4.09,12.71l-26.48,4.67l29.97-84.61l29.1-5.13l28.79,74.24l-26.6,4.69
			L3001.05,554.1z M2995.01,536.45l-7.07-20.82l-7.48,23.39L2995.01,536.45z"/>
		<path class="st0" d="M3137.3,462.74l-0.53,79.41l-25.12,4.43l0.26-39.71l-12.65,41.89l-21.6,3.81l-12.1-37.41l-0.29,39.6
			l-25.23,4.45l0.53-79.41l30.92-5.45l17.44,44.43l17.57-50.6L3137.3,462.74z"/>
		<path class="st0" d="M2870.68,606.99c5.26,1.46,9.48,4.03,12.66,7.68c3.18,3.66,5.35,8.07,6.5,13.25l-26.6,4.69
			c-0.95-1.4-2.33-2.37-4.15-2.91c-1.81-0.54-4.01-0.58-6.59-0.13c-4.85,0.86-8.62,3.07-11.31,6.64c-2.69,3.58-4.07,8.06-4.13,13.45
			c-0.02,2.1,0.1,3.87,0.35,5.32c0.75,4.28,2.57,7.24,5.44,8.9c2.87,1.66,6.92,2.03,12.15,1.11c5.83-1.03,10.55-4.17,14.16-9.44
			l-20.12,3.55l0.17-17.62l41.03-7.23l-0.18,24.9c-6.57,15.5-19.21,24.9-37.92,28.2c-7.2,1.27-13.62,1.06-19.27-0.63
			c-5.65-1.69-10.26-4.67-13.82-8.94c-3.56-4.26-5.9-9.55-7.01-15.85c-0.52-2.97-0.77-5.91-0.74-8.83
			c0.06-7.63,1.76-14.71,5.1-21.24s8.12-12,14.33-16.42s13.45-7.36,21.71-8.81C2859.34,605.4,2865.42,605.53,2870.68,606.99z"/>
		<path class="st0" d="M2960.58,594.1c5.17,2.94,8.29,7.48,9.38,13.64c0.31,1.74,0.44,3.36,0.39,4.86c-0.07,5.39-1.63,10.39-4.68,15
			s-7.38,8.3-12.99,11.08l17.35,27.3l-27.73,4.89l-15.1-25.79l-0.13,28.48l-25.23,4.45l0.53-79.42l37.51-6.61
			C2948.51,590.46,2955.41,591.17,2960.58,594.1z M2927.32,628.48l10-1.76c4.92-0.87,7.38-3.54,7.38-8.02
			c0.01-0.37-0.03-0.85-0.13-1.43c-0.28-1.59-1.01-2.75-2.2-3.48c-1.18-0.72-2.8-0.91-4.84-0.55l-10,1.76L2927.32,628.48z"/>
		<path class="st0" d="M3006.44,599.97l-0.02,9.86l25-4.41l-0.21,18.75l-25.01,4.41l-0.02,11.21l28.42-5.01l-0.13,19.85l-53.65,9.46
			l0.53-79.42l53.65-9.46l-0.15,19.75L3006.44,599.97z"/>
		<path class="st0" d="M3072.48,588.32l-0.02,9.86l25-4.41l-0.21,18.75l-25.01,4.41l-0.02,11.21l28.42-5.01l-0.13,19.85l-53.65,9.46
			l0.53-79.42l53.65-9.46l-0.15,19.75L3072.48,588.32z"/>
		<path class="st0" d="M3190.08,627.19l-25.23,4.45l-26.48-35.21l-0.23,39.92l-25.23,4.45l0.53-79.42l25.23-4.45l26.49,35.89
			l0.22-40.6l25.23-4.45L3190.08,627.19z"/>
	</g>
	<g>
		<path class="st7" d="M3155.38,402.66c0,0,2.25-107.78-81.99-149.1c-1.04-10.95-12.52-23.12-12.52-23.12s-122.1-28.65-193.08,63.26
			c-31.17,40.36-50.95,122.35-50.95,122.35s-51.6,26.45-43.2,50.61c8.95,25.75,96.03,38.54,120.94,44.11
			c62.06,13.89,147.04-53.16,223.16-62.23C3171.84,442.1,3173.84,418.58,3155.38,402.66z"/>
		<g>
			<path class="st8" d="M2923.44,519.91c-10.53,1-20.74,0.64-30.56-1.56c-3.58-0.8-8.62-1.78-14.46-2.92
				c-52.13-10.15-103.72-22.08-112.11-46.22c-9.25-26.62,31.17-51.38,43.84-58.38c4.17-16.25,22.97-84.93,51.5-121.87
				c30.34-39.29,74.76-63.17,128.45-69.07c40.27-4.42,71.24,2.69,72.54,2.99l2.27,0.53l1.6,1.7c1.21,1.28,10.77,11.69,13.79,23.26
				c34.61,18.21,59.83,50.26,73.08,92.94c8.21,26.46,9.54,49.36,9.73,57.95c8.98,8.92,12.45,19.27,9.53,28.83
				c-3.14,10.29-15.06,23.53-53.99,28.16c-31.81,3.79-65.97,18.38-99.01,32.49C2985.77,503.19,2953.29,517.06,2923.44,519.91z
				 M2994.88,235c-1.19,0.11-2.38,0.24-3.59,0.37c-49.88,5.6-89.36,26.82-117.36,63.07c-29.78,38.56-49.35,118.63-49.55,119.43
				l-0.84,3.46l-3.17,1.62c-0.12,0.06-12.48,6.45-23.56,15.5c-7.21,5.88-18.85,17.04-15.85,25.66c1.11,3.19,7.04,11.67,38.14,21.45
				c20.91,6.58,44.82,11.23,62.28,14.63c5.95,1.16,11.09,2.16,14.88,3.01c32.79,7.34,73.83-10.19,117.28-28.74
				c34.05-14.54,69.25-29.57,103.27-33.62c34.38-4.1,40.06-14.27,40.98-17.29c1.3-4.24-1.5-9.85-7.49-15.01l-2.77-2.38l0.08-3.65
				c0.02-1.42,0.89-103.44-77.65-141.98l-3.89-1.91l-0.41-4.32c-0.5-5.22-5.22-12.38-8.89-16.78
				C3049.34,236.09,3024.91,232.14,2994.88,235z"/>
			<path class="st8" d="M2911.21,343.13l-16.88-7.55l2.71-6.89c0.39-1,9.94-24.82,34.9-49.82c22.92-22.97,63.84-51.36,128.34-56.16
				l1.15,15.47c-46.02,3.44-84.63,19.57-114.75,48c28.74-20.71,71.18-40.99,126.78-40.37l-0.17,15.52
				c-101.87-1.13-157.85,75.86-158.4,76.63L2911.21,343.13z"/>
			<path class="st8" d="M2984.14,457.69c-28.92,2.76-61.37,2.97-93.84-1.66c-60.22-8.58-79.04-34.42-79.81-35.51l12.69-8.94
				l-6.34,4.47l6.29-4.54c0.16,0.22,16.56,21.64,69.36,29.16c71.49,10.19,142.51-3.92,172.81-15.9l5.7,14.43
				C3053.05,446.3,3021.55,454.12,2984.14,457.69z"/>
			<path class="st8" d="M3128.92,420.8l-5.21-14.62c19.33-6.88,23.53-18.69,23.7-19.19l14.82,4.6
				C3161.99,392.39,3156.05,411.13,3128.92,420.8z"/>
		</g>
	</g>
</g>
</svg>