<svg version="1.1" id="Ebene_1" xmlns="http://www.w3.org/2000/svg" xmlns:xlink="http://www.w3.org/1999/xlink" x="0px" y="0px"
	 viewBox="1200 200 500 560" xml:space="preserve">
     <style type="text/css">
	.st0{fill:#FFFFFF;}
	.st3{fill:#FF414C;}
	.st4{fill:#B70042;}
</style>

<g>
	<g>
		<path class="st0" d="M1367.81,507.73l-0.15,19.75l-21.37,3.77l-0.38,59.67l-25.23,4.45l0.38-59.67l-21.14,3.73l0.15-19.75
			L1367.81,507.73z"/>
		<path class="st0" d="M1402.55,521.33l-0.02,9.86l25-4.41l-0.21,18.75l-25.01,4.41l-0.02,11.21l28.42-5.01l-0.13,19.85l-53.65,9.46
			l0.53-79.41l53.65-9.46l-0.15,19.74L1402.55,521.33z"/>
		<path class="st0" d="M1494.69,552.69l-26.82,4.73l-4.09,12.71l-26.48,4.67l29.97-84.6l29.1-5.13l28.8,74.24l-26.6,4.69
			L1494.69,552.69z M1488.65,535.05l-7.07-20.82l-7.48,23.39L1488.65,535.05z"/>
		<path class="st0" d="M1630.94,461.34l-0.53,79.41l-25.12,4.43l0.26-39.71l-12.65,41.89l-21.6,3.81l-12.1-37.41l-0.29,39.6
			l-25.23,4.45l0.53-79.41l30.92-5.45l17.44,44.43l17.56-50.6L1630.94,461.34z"/>
		<path class="st0" d="M1372.59,607.03c6.67,3.79,10.7,9.66,12.11,17.61c0.4,2.24,0.56,4.33,0.5,6.27
			c-0.08,6.96-2.1,13.41-6.04,19.36c-3.94,5.95-9.53,10.72-16.76,14.31l22.4,35.24l-35.79,6.31l-19.49-33.3l-0.17,36.76l-32.57,5.74
			l0.68-102.5l48.41-8.54C1357.02,602.33,1365.93,603.24,1372.59,607.03z M1329.67,651.4l12.91-2.28c6.36-1.12,9.53-4.57,9.52-10.35
			c0.01-0.48-0.04-1.1-0.17-1.85c-0.36-2.06-1.31-3.55-2.83-4.49c-1.53-0.94-3.61-1.17-6.25-0.71l-12.91,2.28L1329.67,651.4z"/>
		<path class="st0" d="M1431.79,614.6l-0.03,12.73l32.28-5.69l-0.27,24.2l-32.28,5.69l-0.02,14.46l36.68-6.47l-0.17,25.63
			l-69.25,12.21l0.68-102.5l69.25-12.21l-0.2,25.49L1431.79,614.6z"/>
		<path class="st0" d="M1574.73,641.16c-4.44,8.59-10.74,15.85-18.93,21.78c-8.18,5.93-17.7,9.85-28.56,11.76l-43.28,7.63
			l0.68-102.5l43.28-7.63c9.58-1.69,18.09-1.48,25.52,0.63s13.48,5.82,18.15,11.12c4.66,5.3,7.68,11.83,9.05,19.59
			c0.54,3.08,0.84,6.46,0.88,10.11C1581.44,623.4,1579.17,632.57,1574.73,641.16z M1541.95,637.54c4.36-4.72,6.55-10.75,6.57-18.08
			c-0.04-2.5-0.15-4.31-0.35-5.43c-0.96-5.42-3.5-9.26-7.63-11.52s-9.37-2.83-15.73-1.71l-7.78,1.37l-0.4,45.77l7.78-1.37
			C1531.74,645.27,1537.59,642.27,1541.95,637.54z"/>
	</g>
	<g>
		<path class="st3" d="M1648.09,402.66c0,0,2.25-107.78-81.99-149.1c-1.04-10.95-12.52-23.12-12.52-23.12s-122.1-28.65-193.08,63.26
			c-31.17,40.36-50.95,122.35-50.95,122.35s-51.6,26.45-43.2,50.61c8.95,25.75,96.03,38.54,120.94,44.11
			c62.06,13.89,147.04-53.16,223.16-62.23C1664.55,442.1,1666.55,418.58,1648.09,402.66z"/>
		<g>
			<path class="st4" d="M1416.15,519.91c-10.53,1-20.74,0.64-30.56-1.56c-3.58-0.8-8.62-1.78-14.46-2.92
				c-52.13-10.15-103.72-22.08-112.11-46.22c-9.25-26.62,31.17-51.38,43.84-58.38c4.17-16.25,22.97-84.93,51.5-121.87
				c30.34-39.29,74.76-63.17,128.45-69.07c40.27-4.42,71.24,2.69,72.54,2.99l2.27,0.53l1.6,1.7c1.21,1.28,10.77,11.69,13.79,23.26
				c34.61,18.21,59.83,50.26,73.08,92.94c8.21,26.46,9.54,49.36,9.73,57.95c8.98,8.92,12.45,19.27,9.53,28.83
				c-3.14,10.29-15.06,23.53-53.99,28.16c-31.81,3.79-65.97,18.38-99.01,32.49C1478.48,503.19,1446,517.06,1416.15,519.91z
				 M1487.59,235c-1.19,0.11-2.38,0.24-3.59,0.37c-49.88,5.6-89.36,26.82-117.36,63.07c-29.78,38.56-49.35,118.63-49.55,119.43
				l-0.84,3.46l-3.17,1.62c-0.12,0.06-12.48,6.45-23.56,15.5c-7.21,5.88-18.85,17.04-15.85,25.66c1.11,3.19,7.04,11.67,38.14,21.45
				c20.91,6.58,44.82,11.23,62.28,14.63c5.95,1.16,11.09,2.16,14.88,3.01c32.79,7.34,73.83-10.19,117.28-28.74
				c34.05-14.54,69.25-29.57,103.27-33.62c34.37-4.1,40.06-14.27,40.98-17.29c1.3-4.24-1.5-9.85-7.49-15.01l-2.77-2.38l0.08-3.65
				c0.02-1.42,0.89-103.44-77.65-141.98l-3.89-1.91l-0.41-4.32c-0.5-5.22-5.22-12.38-8.89-16.78
				C1542.05,236.09,1517.62,232.14,1487.59,235z"/>
			<path class="st4" d="M1403.92,343.13l-16.88-7.55l2.71-6.89c0.39-1,9.94-24.82,34.9-49.82c22.93-22.97,63.84-51.36,128.34-56.16
				l1.15,15.47c-46.02,3.44-84.63,19.57-114.75,48c28.74-20.71,71.18-40.99,126.78-40.37l-0.17,15.52
				c-101.87-1.13-157.85,75.86-158.4,76.63L1403.92,343.13z"/>
			<path class="st4" d="M1476.86,457.69c-28.92,2.76-61.37,2.97-93.84-1.66c-60.22-8.58-79.04-34.42-79.81-35.51l12.69-8.94
				l-6.34,4.47l6.29-4.54c0.16,0.22,16.56,21.64,69.36,29.16c71.49,10.19,142.51-3.92,172.81-15.9l5.7,14.43
				C1545.76,446.3,1514.26,454.12,1476.86,457.69z"/>
			<path class="st4" d="M1621.63,420.8l-5.21-14.62c19.33-6.88,23.53-18.69,23.7-19.19l14.82,4.6
				C1654.7,392.39,1648.76,411.13,1621.63,420.8z"/>
		</g>
	</g>
</g>
</svg>